<?xml version="1.0" encoding="utf-8"?>
<!-- Generator: Adobe Illustrator 19.0.0, SVG Export Plug-In . SVG Version: 6.00 Build 0)  -->
<!DOCTYPE svg PUBLIC "-//W3C//DTD SVG 1.1//EN" "http://www.w3.org/Graphics/SVG/1.1/DTD/svg11.dtd">
<svg version="1.1" id="chart" xmlns="http://www.w3.org/2000/svg" xmlns:xlink="http://www.w3.org/1999/xlink" x="0px" y="0px"
	 width="56px" height="84px" viewBox="0 0 56 84" style="enable-background:new 0 0 56 84;" xml:space="preserve">
<style type="text/css">
	.st0{fill:none;stroke:#191919;stroke-width:2;stroke-linecap:round;stroke-linejoin:round;stroke-miterlimit:10;}
	.st1{fill:#191919;stroke:#191919;stroke-width:2;stroke-linecap:round;stroke-linejoin:round;stroke-miterlimit:10;}
</style>
<g id="bar-on">
	<polyline id="XMLID_17_" class="st0" points="31,61 31,79 53,79 	"/>
	<polyline id="XMLID_16_" class="st1" points="35,79 35,69 38,69 38,79 	"/>
	<polyline id="XMLID_15_" class="st1" points="41,79 41,61 44,61 44,79 	"/>
	<polyline id="XMLID_14_" class="st1" points="47,79 47,65 50,65 50,79 	"/>
</g>
<g id="bar">
	<polyline id="XMLID_13_" class="st0" points="3,61 3,79 25,79 	"/>
	<polyline id="XMLID_12_" class="st0" points="7,79 7,69 10,69 10,79 	"/>
	<polyline id="XMLID_11_" class="st0" points="13,79 13,61 16,61 16,79 	"/>
	<polyline id="XMLID_10_" class="st0" points="19,79 19,65 22,65 22,79 	"/>
</g>
<g id="pie-on">
	<path id="XMLID_20_" class="st1" d="M49,44c0,5-4,9-9,9s-9-4-9-9s4.1-9,9-9v9H49z"/>
	<path id="XMLID_19_" class="st1" d="M53,41c0-5.5-4.5-10-10-10v10H53z"/>
</g>
<g id="pie">
	<path id="XMLID_8_" class="st0" d="M21,44c0,5-4,9-9,9s-9-4-9-9s4.1-9,9-9v9H21z"/>
	<path id="XMLID_7_" class="st0" d="M25,41c0-5.5-4.5-10-10-10v10H25z"/>
</g>
<g id="line-on">
	<path id="XMLID_24_" class="st1" d="M51,12v11H31V7h15l-3,3l-1.6-1.6c-0.8-0.8-2-0.8-2.8,0L32,15v3c0,1.1,0.9,2,2,2h3l3-3l1.6,1.6
		c0.8,0.8,2,0.8,2.8,0L51,12z"/>
	<polyline id="XMLID_23_" class="st0" points="35,17 40,12 43,15 52,6 	"/>
	<polyline id="XMLID_22_" class="st0" points="48,5 53,5 53,10 	"/>
</g>
<g id="line">
	<polyline id="XMLID_5_" class="st0" points="23,15 23,23 3,23 3,7 15,7 	"/>
	<polyline id="XMLID_4_" class="st0" points="7,17 12,12 15,15 24,6 	"/>
	<polyline id="XMLID_3_" class="st0" points="20,5 25,5 25,10 	"/>
</g>
</svg>
